<svg xmlns="http://www.w3.org/2000/svg" viewBox="0 0 400 400" preserveAspectRatio="xMidYMid slice">
  
<defs>
  <filter id="grain">
    <feTurbulence type="fractalNoise" baseFrequency="0.9" numOctaves="2" stitchTiles="stitch"></feTurbulence>
    <feColorMatrix values="0 0 0 0 0.22  0 0 0 0 0.16  0 0 0 0 0.1  0 0 0 0.15 0"></feColorMatrix>
    <feComposite in2="SourceGraphic" operator="in"></feComposite>
  </filter>
  <radialGradient id="paperBg" cx="50%" cy="40%" r="75%">
    <stop offset="0%" stop-color="#fbf4e1"></stop>
    <stop offset="100%" stop-color="#e9dabb"></stop>
  </radialGradient>
  <radialGradient id="almondG" cx="30%" cy="30%"><stop offset="0%" stop-color="#f0d5a8"></stop><stop offset="100%" stop-color="#b88654"></stop></radialGradient>
  <radialGradient id="peanutG" cx="30%" cy="30%"><stop offset="0%" stop-color="#eac38a"></stop><stop offset="100%" stop-color="#a96e34"></stop></radialGradient>
  <radialGradient id="raisinG" cx="30%" cy="30%"><stop offset="0%" stop-color="#c49a4e"></stop><stop offset="100%" stop-color="#5a2d1a"></stop></radialGradient>
  <radialGradient id="cranG" cx="30%" cy="30%"><stop offset="0%" stop-color="#b04040"></stop><stop offset="100%" stop-color="#4a1018"></stop></radialGradient>
  <radialGradient id="walnutG" cx="30%" cy="30%"><stop offset="0%" stop-color="#c8924a"></stop><stop offset="100%" stop-color="#6a3a12"></stop></radialGradient>
  <radialGradient id="pecanG" cx="30%" cy="30%"><stop offset="0%" stop-color="#b87248"></stop><stop offset="100%" stop-color="#4a1d0a"></stop></radialGradient>
  <radialGradient id="granolaG" cx="30%" cy="30%"><stop offset="0%" stop-color="#d9a46a"></stop><stop offset="100%" stop-color="#8c5418"></stop></radialGradient>
  <radialGradient id="pbG" cx="30%" cy="30%"><stop offset="0%" stop-color="#e8b878"></stop><stop offset="100%" stop-color="#a06a30"></stop></radialGradient>
  <radialGradient id="chocoG" cx="30%" cy="30%"><stop offset="0%" stop-color="#7a4a24"></stop><stop offset="100%" stop-color="#2a1408"></stop></radialGradient>
</defs>
  <rect width="400" height="400" fill="url(#paperBg)"></rect>
  <circle cx="238.20919449879554" cy="192.18301884414842" r="4.217396469204442" fill="url(#granolaG)"></circle><circle cx="237.25198600820926" cy="151.46825708692865" r="7.862484643657448" fill="url(#granolaG)"></circle><circle cx="199.81231219943538" cy="202.594884229222" r="8.478152435316254" fill="url(#granolaG)"></circle><circle cx="337.2645087902749" cy="272.25551754273215" r="7.102599454673186" fill="url(#granolaG)"></circle><circle cx="92.82325553111002" cy="308.61881728386794" r="4.918282470515393" fill="url(#granolaG)"></circle><circle cx="275.41552925414004" cy="189.75081676297222" r="8.50412705657301" fill="url(#granolaG)"></circle><circle cx="188.69646910442958" cy="210.62138022142616" r="6.556116897719386" fill="url(#granolaG)"></circle><circle cx="81.18459507359363" cy="248.45526953956912" r="6.685717407174953" fill="url(#granolaG)"></circle><circle cx="265.7369592025269" cy="109.29666982430261" r="6.488771153204912" fill="url(#granolaG)"></circle><circle cx="264.72934040615854" cy="243.4370119240686" r="4.65051094758577" fill="url(#granolaG)"></circle><circle cx="301.60370719549354" cy="194.90252992551274" r="4.596949741400765" fill="url(#granolaG)"></circle><circle cx="149.1627680227057" cy="281.9801452436729" r="5.837267669698823" fill="url(#granolaG)"></circle><circle cx="285.45356695723154" cy="232.42855725711485" r="8.463130914212906" fill="url(#granolaG)"></circle><circle cx="189.46421667100535" cy="251.5596938538482" r="6.412606647699972" fill="url(#granolaG)"></circle><circle cx="273.1380579833275" cy="258.35896207402686" r="5.328461564312302" fill="url(#granolaG)"></circle><circle cx="135.78832287314367" cy="90.25709095952844" r="6.227040946525767" fill="url(#granolaG)"></circle><circle cx="191.5294393512491" cy="228.62046116428547" r="4.124506309623056" fill="url(#granolaG)"></circle><circle cx="128.9377848261947" cy="288.2163883795906" r="4.308237611720249" fill="url(#granolaG)"></circle><circle cx="246.1819431058462" cy="321.7323744724066" r="5.5537451678150855" fill="url(#granolaG)"></circle><circle cx="239.72857088067903" cy="157.6461234180216" r="5.298620155030477" fill="url(#granolaG)"></circle><circle cx="140.8154937825651" cy="209.05871409709746" r="6.393885089029094" fill="url(#granolaG)"></circle><circle cx="137.05048405901456" cy="298.5174779556519" r="6.34385134962371" fill="url(#granolaG)"></circle><circle cx="211.72453691895097" cy="86.52695745635012" r="6.859265706941371" fill="url(#granolaG)"></circle><circle cx="304.50651427406655" cy="277.20498205681105" r="5.6840207952060124" fill="url(#granolaG)"></circle><circle cx="268.7381950887204" cy="223.57336361251652" r="8.758798542078273" fill="url(#granolaG)"></circle><circle cx="153.87968324436073" cy="297.14719744722913" r="6.750319304832259" fill="url(#granolaG)"></circle><circle cx="311.1808718058632" cy="245.3376173906962" r="7.427081085292455" fill="url(#granolaG)"></circle><circle cx="92.09894650404121" cy="286.7768983464157" r="8.766015547299325" fill="url(#granolaG)"></circle><circle cx="332.67362538466057" cy="234.94695207119688" r="6.436136522808044" fill="url(#granolaG)"></circle><circle cx="281.45957759767737" cy="286.72885993511113" r="4.216950201496648" fill="url(#granolaG)"></circle><ellipse cx="298.6204013512149" cy="170.62545923288397" rx="8" ry="3" fill="#e8c88a" transform="rotate(39.041627587353375 298.6204013512149 170.62545923288397)"></ellipse><ellipse cx="170.24012046821798" cy="324.3094575842065" rx="8" ry="3" fill="#e8c88a" transform="rotate(134.95926897818555 170.24012046821798 324.3094575842065)"></ellipse><ellipse cx="310.92074347119205" cy="101.35233764022054" rx="8" ry="3" fill="#e8c88a" transform="rotate(128.11783047551904 310.92074347119205 101.35233764022054)"></ellipse><ellipse cx="158.8589281543776" cy="179.9287454193279" rx="8" ry="3" fill="#e8c88a" transform="rotate(120.84337901082189 158.8589281543776 179.9287454193279)"></ellipse><ellipse cx="229.04421330362425" cy="133.6535578982948" rx="8" ry="3" fill="#e8c88a" transform="rotate(71.81380250924437 229.04421330362425 133.6535578982948)"></ellipse><ellipse cx="289.524382355867" cy="231.67503527481924" rx="8" ry="3" fill="#e8c88a" transform="rotate(119.26907799284008 289.524382355867 231.67503527481924)"></ellipse><ellipse cx="314.5192708601784" cy="337.7421578529807" rx="8" ry="3" fill="#e8c88a" transform="rotate(4.239096287892932 314.5192708601784 337.7421578529807)"></ellipse><ellipse cx="121.71776144939929" cy="280.8773609741677" rx="8" ry="3" fill="#e8c88a" transform="rotate(95.8860544591723 121.71776144939929 280.8773609741677)"></ellipse><ellipse cx="267.25017140415383" cy="135.41925447871037" rx="8" ry="3" fill="#e8c88a" transform="rotate(55.29678240056992 267.25017140415383 135.41925447871037)"></ellipse><ellipse cx="207.71071357298112" cy="200.59681384989813" rx="8" ry="3" fill="#e8c88a" transform="rotate(48.087364462453394 207.71071357298112 200.59681384989813)"></ellipse>
  <rect width="400" height="400" fill="url(#paperBg)" filter="url(#grain)" opacity=".15"></rect>
</svg>